HIERARCHY
ROOT Hips
{
	OFFSET -3.958830 18.904000 13.208200
	CHANNELS 6 Xposition Yposition Zposition Zrotation Yrotation Xrotation 
	JOINT LHipJoint
	{
		OFFSET 0.000000 0.000000 0.000000
		CHANNELS 3 Zrotation Yrotation Xrotation
		JOINT LeftUpLeg
		{
			OFFSET 1.800000 -1.400000 0.085000
			CHANNELS 3 Zrotation Yrotation Xrotation
			JOINT LeftLeg
			{
				OFFSET 2.215000 -6.000000 0.000000
				CHANNELS 3 Zrotation Yrotation Xrotation
				JOINT LeftFoot
				{
					OFFSET 2.500000 -6.900000 0.000000
					CHANNELS 3 Zrotation Yrotation Xrotation
					JOINT LeftToeBase
					{
						OFFSET 0.200000 -0.500000 1.950000
						CHANNELS 3 Zrotation Yrotation Xrotation
						End Site
						{
							OFFSET 0.000000 0.000000 0.000000
						}
					}
				}
			}
		}
	}
	JOINT RHipJoint
	{
		OFFSET 0.000000 0.000000 0.000000
		CHANNELS 3 Zrotation Yrotation Xrotation
		JOINT RightUpLeg
		{
			OFFSET -1.800000 -1.400000 0.085000
			CHANNELS 3 Zrotation Yrotation Xrotation
			JOINT RightLeg
			{
				OFFSET -2.215000 -6.000000 0.000000
				CHANNELS 3 Zrotation Yrotation Xrotation
				JOINT RightFoot
				{
					OFFSET -2.500000 -6.900000 0.000000
					CHANNELS 3 Zrotation Yrotation Xrotation
					JOINT RightToeBase
					{
						OFFSET -0.200000 -0.500000 1.950000
						CHANNELS 3 Zrotation Yrotation Xrotation
						End Site
						{
							OFFSET 0.000000 0.000000 0.000000
						}
					}
				}
			}
		}
	}
	JOINT LowerBack
	{
		OFFSET 0.000000 0.000000 0.000000
		CHANNELS 3 Zrotation Yrotation Xrotation
		JOINT Spine
		{
			OFFSET -0.087000 1.940000 -0.288900
			CHANNELS 3 Zrotation Yrotation Xrotation
			JOINT Spine1
			{
				OFFSET 0.000000 1.950000 0.060000
				CHANNELS 3 Zrotation Yrotation Xrotation
				JOINT Neck
				{
					OFFSET 0.000000 0.000000 0.000000
					CHANNELS 3 Zrotation Yrotation Xrotation
					JOINT Neck1
					{
						OFFSET 0.000000 1.600000 0.340000
						CHANNELS 3 Zrotation Yrotation Xrotation
						JOINT Head
						{
							OFFSET 0.000000 1.667000 -0.240000
							CHANNELS 3 Zrotation Yrotation Xrotation
							End Site
							{
								OFFSET 0.000000 0.000000 0.000000
							}
						}
					}
				}
				JOINT LeftShoulder
				{
					OFFSET 0.000000 0.000000 0.000000
					CHANNELS 3 Zrotation Yrotation Xrotation
					JOINT LeftArm
					{
						OFFSET 2.700000 1.550000 -0.730000
						CHANNELS 3 Zrotation Yrotation Xrotation
						JOINT LeftForeArm
						{
							OFFSET 5.450000 0.000000 0.000000
							CHANNELS 3 Zrotation Yrotation Xrotation
							JOINT LeftHand
							{
								OFFSET 3.450000 0.000000 0.000000
								CHANNELS 3 Zrotation Yrotation Xrotation
								JOINT LeftHandIndex1
								{
									OFFSET 0.750000 0.000000 0.000000
									CHANNELS 3 Zrotation Yrotation Xrotation
									End Site
									{
										OFFSET 0.000000 0.000000 0.000000
									}
								}
							}
						}
					}
				}
				JOINT RightShoulder
				{
					OFFSET 0.000000 0.000000 0.000000
					CHANNELS 3 Zrotation Yrotation Xrotation
					JOINT RightArm
					{
						OFFSET -2.700000 1.550000 -0.730000
						CHANNELS 3 Zrotation Yrotation Xrotation
						JOINT RightForeArm
						{
							OFFSET -5.450000 0.000000 0.000000
							CHANNELS 3 Zrotation Yrotation Xrotation
							JOINT RightHand
							{
								OFFSET -3.450000 0.000000 0.000000
								CHANNELS 3 Zrotation Yrotation Xrotation
								JOINT RightHandIndex1
								{
									OFFSET -0.750000 0.000000 0.000000
									CHANNELS 3 Zrotation Yrotation Xrotation
									End Site
									{
										OFFSET 0.000000 0.000000 0.000000
									}
								}
							}
						}
					}
				}
			}
		}
	}
}
MOTION
Frames: 12
Frame Time: 0.016667
-0.611600 17.386390 -5.078350 -2.084271 -4.492799 -21.960210 -14.295561 12.411299 2.368628 19.666906 1.236575 8.620129 -5.186172 6.903729 8.888788 0.291150 5.488565 2.812790 0.351470 0.166010 0.306930 19.069760 -12.606348 2.320530 -11.605083 -1.923975 3.324865 2.333367 -6.582555 20.120668 -0.586194 -5.327986 2.646937 0.065360 0.066410 0.007360 -5.878036 2.136710 -6.622399 24.486252 -11.871481 19.693437 -29.409347 -3.291720 33.405715 11.811021 -11.552839 -16.870375 -20.998519 10.573485 27.198957 2.894700 3.303250 -8.003330 -5.330761 -8.612218 5.900159 -35.572464 4.722496 -12.204326 -125.014011 -38.634871 40.413530 -3.304104 3.803760 0.288160 -0.072480 -0.030500 0.065870 -13.860691 18.686412 17.329485 1.993066 2.117563 1.993083 -3.637918 11.372150 0.308678 2.296100 -1.434625 -0.060980 0.115360 -0.096600 -0.094800 
-0.606740 17.383630 -5.080530 -2.099858 -4.381044 -21.952440 -14.292596 12.411030 2.381434 19.812180 1.223991 8.565212 -5.299532 6.918905 8.841454 0.299338 5.480203 2.812974 0.370170 0.188570 0.318360 19.071108 -12.614991 2.309241 -11.409958 -1.921654 3.204564 1.990820 -6.501444 20.375059 -0.597299 -5.300579 2.656472 0.071540 0.047220 0.004960 -5.882449 2.141331 -6.629534 24.523920 -11.936771 19.897095 -29.616625 -3.273608 33.269851 11.816351 -11.449298 -16.920565 -20.873411 10.380980 27.265398 3.047230 3.236850 -8.425610 -5.125196 -8.566699 5.855074 -35.365165 4.444045 -12.050371 -125.409972 -38.743839 41.034487 -3.281289 3.811171 0.297990 -0.087870 -0.014650 0.073820 -14.142395 18.571486 17.397104 2.837494 1.679548 1.593087 -4.065069 12.359848 0.223482 2.282735 -1.474243 -0.052180 0.111300 -0.113500 -0.095740 
-0.602780 17.381210 -5.086400 -1.869008 -4.451344 -21.994651 -14.288366 12.440868 2.409977 19.785931 1.240122 8.620921 -5.476864 6.961917 8.867132 0.342836 5.465264 2.816201 0.386230 0.220980 0.316560 19.065564 -12.635753 2.286286 -11.260941 -1.871036 2.863129 1.335568 -6.321776 20.843930 -0.600829 -5.250873 2.672310 0.071430 0.034620 0.010780 -5.876044 2.108344 -6.644085 24.089870 -11.908610 20.415454 -29.552596 -3.107568 32.955034 11.643174 -11.343653 -17.113271 -20.797644 10.245669 27.420197 3.555610 3.104760 -8.446470 -5.421412 -8.917976 5.896016 -34.536166 4.392259 -11.965910 -125.953802 -38.823605 41.652850 -3.261502 3.835056 0.284770 -0.098740 0.003250 0.087800 -13.600359 18.808871 17.551173 2.847289 0.756164 1.295555 -4.306164 12.668897 0.171056 2.298837 -1.498858 -0.022550 0.096380 -0.134380 -0.077640 
-0.595470 17.377240 -5.086910 -1.740140 -4.186269 -21.929610 -14.291829 12.472993 2.435848 19.739196 1.213105 8.647337 -5.565630 6.963123 8.748140 0.381190 5.444589 2.825844 0.399790 0.245340 0.319750 19.057794 -12.629304 2.257834 -11.161951 -1.859334 2.521717 0.945571 -6.215618 21.255144 -0.597369 -5.215196 2.685629 0.072650 0.026590 0.009120 -5.859298 2.024830 -6.651945 23.642526 -12.023044 20.570006 -29.433510 -3.134604 32.679491 11.425775 -11.213165 -17.263716 -20.684767 10.324398 27.608826 4.075920 3.141980 -7.997680 -5.858215 -9.427367 6.069211 -33.845228 4.525449 -11.942320 -126.199007 -38.930109 42.036190 -3.248341 3.854127 0.266620 -0.104570 0.010250 0.100250 -12.864075 19.059006 17.626569 2.298221 0.007992 1.246256 -4.263356 12.507536 0.165379 2.323881 -1.508823 -0.001870 0.082470 -0.157250 -0.064310 
-0.582460 17.366620 -5.082210 -1.873722 -3.660750 -21.833108 -14.288075 12.476993 2.425305 19.801259 1.165905 8.555666 -5.508646 6.967576 8.862447 0.392146 5.438614 2.836270 0.394190 0.251660 0.296600 19.062962 -12.634162 2.244380 -11.074486 -1.902048 2.295728 0.951196 -6.246425 21.505294 -0.589728 -5.223745 2.697093 0.074150 0.048500 0.004660 -5.873991 2.024971 -6.645908 23.738124 -12.312616 20.457094 -29.560946 -3.374259 32.348131 11.241856 -11.135416 -17.152876 -20.515642 10.371060 27.515307 4.481260 3.048400 -7.556660 -5.968975 -9.560036 6.080036 -33.340662 4.323207 -11.702521 -126.054556 -38.713063 41.829132 -3.257858 3.859335 0.246580 -0.090660 -0.002020 0.114550 -12.532517 18.939054 17.514967 1.943025 -0.402843 1.194972 -3.844025 12.995042 0.184363 2.302846 -1.526766 0.000500 0.089870 -0.158790 -0.049380 
-0.569830 17.348050 -5.078480 -2.023309 -2.994207 -21.535237 -14.298683 12.525749 2.412798 19.800121 1.114443 8.148035 -5.396300 6.955943 9.117259 0.397181 5.399301 2.847605 0.400490 0.263420 0.297060 19.051402 -12.612688 2.224314 -10.935599 -1.890821 1.811864 1.049285 -6.298598 21.937002 -0.585889 -5.203773 2.704577 0.073190 0.043530 0.004670 -5.847463 1.919685 -6.638832 23.738598 -12.475239 20.185768 -29.489670 -3.594838 31.832185 10.980844 -10.908843 -17.052435 -20.219345 10.231048 27.861535 4.791360 2.974830 -7.392210 -5.583852 -9.559027 6.139234 -33.312201 3.900936 -11.410971 -125.312282 -38.588754 41.400622 -3.253272 3.866940 0.240270 -0.093910 0.003810 0.122070 -12.644766 18.593915 17.356003 2.501216 -0.365421 1.036461 -4.332052 13.230324 0.105286 2.321361 -1.540180 0.011200 0.083400 -0.170280 -0.043180 
-0.554050 17.326280 -5.063520 -2.027113 -2.448747 -20.862448 -14.301147 12.522339 2.410045 19.648348 1.040052 7.711462 -5.610829 6.952785 9.076998 0.382049 5.395098 2.857322 0.378490 0.234340 0.280340 19.053346 -12.601673 2.190278 -11.081084 -1.826520 1.010084 1.432377 -6.427536 22.308183 -0.556810 -5.203950 2.702267 0.065100 0.067220 0.007830 -5.855181 1.911180 -6.621945 24.031759 -12.449189 19.162868 -29.680988 -3.628358 31.065956 10.735571 -10.647994 -16.772346 -19.752056 10.007894 28.177747 4.510100 2.902860 -6.501850 -5.281270 -9.216068 6.037582 -32.808131 3.442164 -10.671201 -124.390264 -38.014387 40.568008 -3.278634 3.870378 0.226790 -0.071530 -0.017470 0.122410 -12.775374 17.993371 16.999912 2.933742 0.152953 1.057895 -4.202182 13.610865 0.085780 2.312163 -1.552667 -0.001280 0.083590 -0.157900 -0.042880 
-0.545730 17.311340 -5.052500 -1.835254 -2.233300 -20.454823 -14.308322 12.519435 2.417843 19.297239 1.016532 7.630402 -5.685976 6.886590 8.792782 0.373542 5.356285 2.871992 0.395380 0.255380 0.289060 19.051778 -12.593492 2.156034 -11.303833 -1.796061 0.517791 1.533793 -6.460510 22.541029 -0.547421 -5.199875 2.698945 0.080860 0.061360 0.009760 -5.849967 1.895393 -6.602693 23.814020 -12.181773 18.456251 -29.549068 -3.515245 30.867392 10.555929 -10.467641 -16.423991 -19.387004 9.831988 28.350865 4.166620 2.962440 -6.419580 -4.972757 -8.944056 5.876987 -32.402760 2.613026 -10.001768 -124.215724 -37.941229 40.957661 -3.278443 3.890593 0.217660 -0.066770 -0.018360 0.130230 -12.868950 17.469407 16.625890 2.803484 0.848229 1.421586 -3.428256 13.340541 0.158716 2.305627 -1.551652 0.003130 0.076880 -0.170850 -0.043880 
-0.540740 17.299970 -5.045470 -1.662621 -1.734822 -20.236182 -14.328883 12.581793 2.419157 19.004789 1.023562 7.489290 -5.603869 6.874867 8.940262 0.380559 5.324724 2.891895 0.404570 0.271090 0.297530 19.028007 -12.566341 2.131665 -11.588959 -1.816797 0.272295 1.699867 -6.534850 22.784627 -0.540497 -5.207214 2.702451 0.088660 0.062030 0.000710 -5.795257 1.745530 -6.601562 23.085591 -11.984416 18.221823 -29.092406 -3.457179 30.661599 10.348550 -10.120398 -16.274103 -18.759209 9.668075 28.702795 4.061360 3.071720 -5.956430 -4.907542 -9.064708 5.875209 -31.824253 2.155737 -9.549099 -124.326620 -37.969795 41.494555 -3.278283 3.895634 0.203590 -0.061320 -0.021310 0.141120 -12.689119 17.238927 16.464315 2.911060 1.208011 1.632893 -3.568289 12.675508 0.123746 2.334641 -1.541458 0.004650 0.078820 -0.189460 -0.041050 
-0.538850 17.298090 -5.044900 -1.011712 -1.496191 -20.402608 -14.351597 12.665599 2.426080 18.167502 1.109862 7.779975 -5.301699 6.810906 9.079002 0.373471 5.293557 2.908168 0.404430 0.269010 0.302470 18.996357 -12.562585 2.092799 -12.443862 -1.808859 0.155405 1.766212 -6.613407 23.144843 -0.533238 -5.244676 2.680341 0.092810 0.063620 0.000730 -5.725695 1.568054 -6.595934 21.575948 -11.750847 18.577936 -28.541558 -3.258343 30.960305 10.192867 -9.909542 -16.278699 -18.305886 9.589321 28.602214 3.938210 3.215700 -5.890420 -4.604071 -9.323259 5.952613 -31.424153 1.935782 -9.471702 -125.048647 -38.349387 42.557098 -3.285422 3.899635 0.202520 -0.057730 -0.023700 0.140520 -12.683201 17.397144 16.516304 2.893204 1.486049 1.903433 -3.258645 11.950143 0.157584 2.344709 -1.519690 -0.001080 0.079930 -0.189940 -0.045110 
-0.535990 17.294270 -5.043150 -0.868810 -1.301092 -20.439786 -14.358153 12.674566 2.433318 18.004586 1.130477 7.929366 -5.336358 6.816852 9.051442 0.385151 5.293173 2.912208 0.414150 0.287860 0.303190 18.990345 -12.564383 2.069733 -12.636732 -1.791548 0.016222 1.768365 -6.652218 23.550744 -0.531952 -5.279382 2.666237 0.105150 0.065210 -0.000340 -5.712230 1.547701 -6.591907 21.127877 -11.702031 18.627575 -28.402551 -3.225850 31.087734 10.113893 -9.771165 -16.136365 -17.942129 9.618013 28.390728 3.913740 3.348990 -5.715680 -4.527777 -9.374604 5.977981 -31.072628 1.703387 -9.252104 -125.748268 -38.782272 43.933155 -3.287969 3.918268 0.186320 -0.051920 -0.026980 0.148950 -12.622990 17.275525 16.359234 2.718605 1.938450 2.167610 -2.987266 11.440660 0.168141 2.356336 -1.520001 0.004160 0.075940 -0.201530 -0.039100 
-0.531330 17.296320 -5.041790 -0.672622 -1.497825 -20.609534 -14.367315 12.709152 2.433564 17.750008 1.171648 8.093971 -5.266954 6.844288 9.307469 0.376236 5.309763 2.905757 0.422010 0.289460 0.321320 18.976965 -12.562464 2.062030 -12.909055 -1.772589 0.064387 1.800583 -6.686860 23.686988 -0.540735 -5.291408 2.654722 0.107310 0.057930 0.006070 -5.679518 1.483291 -6.586838 20.709007 -11.590296 18.874262 -28.163525 -3.168954 31.367419 10.172351 -9.822309 -16.121617 -18.041945 9.609017 28.282596 3.552790 3.486160 -6.335780 -4.694050 -9.562248 6.051611 -30.993853 1.720421 -9.336065 -126.263145 -39.403754 45.151440 -3.293338 3.905533 0.200600 -0.056830 -0.015740 0.144690 -12.492276 17.402600 16.290125 2.106189 2.011775 2.282751 -2.699342 11.050960 0.221143 2.355398 -1.492568 0.002350 0.081920 -0.201140 -0.047200 
